<svg xmlns="http://www.w3.org/2000/svg" xmlns:xlink="http://www.w3.org/1999/xlink" width="500" zoomAndPan="magnify" viewBox="0 0 375 112.499997" height="150" preserveAspectRatio="xMidYMid meet" version="1.0"><defs><g/><clipPath id="e5df4befc6"><path d="M 0.828125 0 L 374.167969 0 L 374.167969 112.003906 L 0.828125 112.003906 Z M 0.828125 0 " clip-rule="nonzero"/></clipPath><clipPath id="bcfcdba204"><path d="M 170.417969 1.867188 L 239.859375 1.867188 L 239.859375 55.628906 L 170.417969 55.628906 Z M 170.417969 1.867188 " clip-rule="nonzero"/></clipPath><clipPath id="aabb9c9579"><path d="M 11 0.867188 L 69.8125 0.867188 L 69.8125 54.628906 L 11 54.628906 Z M 11 0.867188 " clip-rule="nonzero"/></clipPath><clipPath id="ca01ea663c"><path d="M 0.476562 12 L 20 12 L 20 43 L 0.476562 43 Z M 0.476562 12 " clip-rule="nonzero"/></clipPath><clipPath id="baab1831d2"><rect x="0" width="70" y="0" height="55"/></clipPath></defs><g clip-path="url(#e5df4befc6)"><path fill="#ffffff" d="M 0.828125 0 L 374.171875 0 L 374.171875 112.003906 L 0.828125 112.003906 Z M 0.828125 0 " fill-opacity="1" fill-rule="nonzero"/><path fill="#ffffff" d="M 0.828125 0 L 374.171875 0 L 374.171875 112.003906 L 0.828125 112.003906 Z M 0.828125 0 " fill-opacity="1" fill-rule="nonzero"/></g><g clip-path="url(#bcfcdba204)"><g transform="matrix(1, 0, 0, 1, 170, 1)"><g clip-path="url(#baab1831d2)"><g clip-path="url(#aabb9c9579)"><path fill="#202020" d="M 13.082031 45.476562 L 48.117188 45.476562 C 49.742188 45.476562 51.121094 44.261719 51.339844 42.667969 L 55.609375 10.621094 C 55.609375 10.621094 55.609375 10.621094 55.609375 10.605469 C 56.324219 5.054688 61.089844 0.855469 66.695312 0.855469 L 67.535156 0.855469 C 68.679688 0.855469 69.601562 1.777344 69.601562 2.921875 C 69.601562 4.0625 68.679688 4.988281 67.535156 4.988281 L 66.695312 4.988281 C 63.15625 4.988281 60.152344 7.632812 59.699219 11.144531 C 59.699219 11.144531 59.699219 11.144531 59.699219 11.15625 L 55.429688 43.203125 C 54.949219 46.851562 51.808594 49.605469 48.117188 49.605469 L 46.878906 49.605469 C 46.835938 52.609375 44.414062 55.03125 41.398438 55.03125 C 38.378906 55.03125 35.957031 52.609375 35.914062 49.605469 L 27.347656 49.605469 C 27.308594 52.609375 24.882812 55.03125 21.867188 55.03125 C 18.851562 55.03125 16.429688 52.609375 16.386719 49.605469 L 13.082031 49.605469 C 11.9375 49.605469 11.015625 48.683594 11.015625 47.542969 C 11.015625 46.398438 11.9375 45.476562 13.082031 45.476562 Z M 13.082031 45.476562 " fill-opacity="1" fill-rule="nonzero"/></g><path fill="#77bf3f" d="M 25.449219 10.34375 L 32.265625 9.519531 C 34.867188 13.675781 40.515625 20.839844 50.511719 25.105469 L 48.613281 39.304688 C 34.496094 31.167969 27.667969 16.167969 25.449219 10.34375 Z M 25.449219 10.34375 " fill-opacity="1" fill-rule="nonzero"/><path fill="#50b948" d="M 21.222656 10.851562 C 23.164062 16.390625 30.144531 33.273438 45.941406 42.582031 L 24.265625 42.582031 C 16.992188 29.871094 15.203125 15.976562 14.789062 11.625 Z M 21.222656 10.851562 " fill-opacity="1" fill-rule="nonzero"/><path fill="#fbcc06" d="M 51.09375 20.839844 C 43.902344 17.492188 39.371094 12.519531 36.867188 8.964844 L 50.292969 7.355469 C 50.925781 7.273438 51.558594 7.507812 52.015625 7.960938 C 52.46875 8.414062 52.675781 9.050781 52.59375 9.683594 Z M 51.09375 20.839844 " fill-opacity="1" fill-rule="nonzero"/><g clip-path="url(#ca01ea663c)"><path fill="#38a34a" d="M 1.140625 13.882812 C 1.484375 13.441406 1.980469 13.167969 2.53125 13.097656 L 10.699219 12.121094 C 11.113281 16.734375 12.804688 29.859375 19.539062 42.582031 L 11.03125 42.582031 C 7.230469 42.582031 3.980469 39.746094 3.484375 35.972656 L 0.757812 15.425781 C 0.644531 14.875 0.796875 14.324219 1.140625 13.882812 Z M 1.140625 13.882812 " fill-opacity="1" fill-rule="nonzero"/></g></g></g></g><g fill="#38a34a" fill-opacity="1"><g transform="translate(81.010098, 96.591373)"><g><path d="M 40.265625 0 L 29.046875 0 L 14.0625 -20.734375 L 14.0625 0 L 4.84375 0 L 4.84375 -42.453125 L 14.0625 -42.453125 L 14.0625 -22.859375 L 27.953125 -42.453125 L 38.6875 -42.453125 L 24.203125 -22.140625 Z M 40.265625 0 "/></g></g></g><g fill="#38a34a" fill-opacity="1"><g transform="translate(120.792893, 96.591373)"><g><path d="M 4.25 -37.109375 L 4.25 -45.359375 L 13.09375 -45.359375 L 13.09375 -37.109375 Z M 4.25 0 L 4.25 -32.75 L 13.09375 -32.75 L 13.09375 0 Z M 4.25 0 "/></g></g></g><g fill="#38a34a" fill-opacity="1"><g transform="translate(138.137226, 96.591373)"><g><path d="M 41.484375 -33.53125 C 43.742188 -33.53125 45.742188 -32.972656 47.484375 -31.859375 C 49.222656 -30.753906 50.585938 -29.226562 51.578125 -27.28125 C 52.566406 -25.34375 53.0625 -23.101562 53.0625 -20.5625 L 53.0625 0 L 44.203125 0 L 44.203125 -19.109375 C 44.203125 -23.546875 42.546875 -25.765625 39.234375 -25.765625 C 37.296875 -25.765625 35.769531 -25.054688 34.65625 -23.640625 C 33.539062 -22.234375 32.984375 -20.253906 32.984375 -17.703125 L 32.984375 0 L 24.3125 0 L 24.3125 -19.109375 C 24.3125 -23.546875 22.71875 -25.765625 19.53125 -25.765625 C 17.507812 -25.765625 15.929688 -25.054688 14.796875 -23.640625 C 13.660156 -22.234375 13.09375 -20.253906 13.09375 -17.703125 L 13.09375 0 L 4.25 0 L 4.25 -32.75 L 10.4375 -32.75 L 12.0625 -28.6875 C 13.238281 -30.132812 14.6875 -31.300781 16.40625 -32.1875 C 18.125 -33.082031 19.953125 -33.53125 21.890625 -33.53125 C 23.953125 -33.53125 25.8125 -33.066406 27.46875 -32.140625 C 29.125 -31.210938 30.414062 -29.921875 31.34375 -28.265625 C 32.476562 -29.878906 33.9375 -31.160156 35.71875 -32.109375 C 37.5 -33.054688 39.421875 -33.53125 41.484375 -33.53125 Z M 41.484375 -33.53125 "/></g></g></g><g fill="#38a34a" fill-opacity="1"><g transform="translate(195.021777, 96.591373)"><g><path d="M 30.984375 -32.8125 L 37.59375 -32.8125 L 37.59375 -0.0625 L 30.625 -0.0625 L 29.890625 -2.96875 C 28.472656 -1.757812 26.863281 -0.8125 25.0625 -0.125 C 23.269531 0.5625 21.34375 0.90625 19.28125 0.90625 C 16.007812 0.90625 13.078125 0.148438 10.484375 -1.359375 C 7.898438 -2.878906 5.859375 -4.941406 4.359375 -7.546875 C 2.867188 -10.160156 2.125 -13.125 2.125 -16.4375 C 2.125 -19.707031 2.867188 -22.644531 4.359375 -25.25 C 5.859375 -27.863281 7.898438 -29.914062 10.484375 -31.40625 C 13.078125 -32.90625 16.007812 -33.65625 19.28125 -33.65625 C 21.382812 -33.65625 23.34375 -33.300781 25.15625 -32.59375 C 26.976562 -31.882812 28.597656 -30.90625 30.015625 -29.65625 Z M 20.015625 -7.453125 C 21.710938 -7.453125 23.238281 -7.835938 24.59375 -8.609375 C 25.945312 -9.378906 27.003906 -10.441406 27.765625 -11.796875 C 28.535156 -13.148438 28.921875 -14.695312 28.921875 -16.4375 C 28.921875 -18.132812 28.535156 -19.660156 27.765625 -21.015625 C 27.003906 -22.367188 25.945312 -23.4375 24.59375 -24.21875 C 23.238281 -25.007812 21.710938 -25.40625 20.015625 -25.40625 C 18.273438 -25.40625 16.738281 -25.007812 15.40625 -24.21875 C 14.070312 -23.4375 13.019531 -22.367188 12.25 -21.015625 C 11.476562 -19.660156 11.09375 -18.132812 11.09375 -16.4375 C 11.09375 -14.695312 11.476562 -13.160156 12.25 -11.828125 C 13.019531 -10.492188 14.070312 -9.429688 15.40625 -8.640625 C 16.738281 -7.847656 18.273438 -7.453125 20.015625 -7.453125 Z M 20.015625 -7.453125 "/></g></g></g><g fill="#202020" fill-opacity="1"><g transform="translate(236.868169, 96.591373)"><g><path d="M 30.984375 -32.8125 L 37.59375 -32.8125 L 37.59375 -0.0625 L 30.625 -0.0625 L 29.890625 -2.96875 C 28.472656 -1.757812 26.863281 -0.8125 25.0625 -0.125 C 23.269531 0.5625 21.34375 0.90625 19.28125 0.90625 C 16.007812 0.90625 13.078125 0.148438 10.484375 -1.359375 C 7.898438 -2.878906 5.859375 -4.941406 4.359375 -7.546875 C 2.867188 -10.160156 2.125 -13.125 2.125 -16.4375 C 2.125 -19.707031 2.867188 -22.644531 4.359375 -25.25 C 5.859375 -27.863281 7.898438 -29.914062 10.484375 -31.40625 C 13.078125 -32.90625 16.007812 -33.65625 19.28125 -33.65625 C 21.382812 -33.65625 23.34375 -33.300781 25.15625 -32.59375 C 26.976562 -31.882812 28.597656 -30.90625 30.015625 -29.65625 Z M 20.015625 -7.453125 C 21.710938 -7.453125 23.238281 -7.835938 24.59375 -8.609375 C 25.945312 -9.378906 27.003906 -10.441406 27.765625 -11.796875 C 28.535156 -13.148438 28.921875 -14.695312 28.921875 -16.4375 C 28.921875 -18.132812 28.535156 -19.660156 27.765625 -21.015625 C 27.003906 -22.367188 25.945312 -23.4375 24.59375 -24.21875 C 23.238281 -25.007812 21.710938 -25.40625 20.015625 -25.40625 C 18.273438 -25.40625 16.738281 -25.007812 15.40625 -24.21875 C 14.070312 -23.4375 13.019531 -22.367188 12.25 -21.015625 C 11.476562 -19.660156 11.09375 -18.132812 11.09375 -16.4375 C 11.09375 -14.695312 11.476562 -13.160156 12.25 -11.828125 C 13.019531 -10.492188 14.070312 -9.429688 15.40625 -8.640625 C 16.738281 -7.847656 18.273438 -7.453125 20.015625 -7.453125 Z M 20.015625 -7.453125 "/></g></g></g><g fill="#202020" fill-opacity="1"><g transform="translate(278.712883, 96.591373)"><g><path d="M 34.328125 0 L 23.59375 0 L 13.09375 -15.640625 L 13.09375 0 L 4.25 0 L 4.25 -44.578125 L 13.09375 -44.578125 L 13.09375 -18.1875 L 22.921875 -32.75 L 33.109375 -32.75 L 22.078125 -17.15625 Z M 34.328125 0 "/></g></g></g><g fill="#202020" fill-opacity="1"><g transform="translate(312.734452, 96.591373)"><g><path d="M 4.25 -37.109375 L 4.25 -45.359375 L 13.09375 -45.359375 L 13.09375 -37.109375 Z M 4.25 0 L 4.25 -32.75 L 13.09375 -32.75 L 13.09375 0 Z M 4.25 0 "/></g></g></g></svg>